# xmcd
#
# Track frame offsets: 
#        182
#        12207
#        24737
#        35005
#        47157
#        57780
#        71705
#        83525
#        95407
#        109402
#        122422
#        135255
#        146630
#        161805
#        172817
#        185652
#        197767
#        209417
#        218572
#        231422
#        243055
#        255960
#
# Disc length: 3574 seconds
#
# Revision: 6
# Processed by: cddbd v1.5.2PL0 Copyright (c) Steve Scherf et al.
# Submitted via: ExactAudioCopy v0.99pb4
#
DISCID=2e0df416
DTITLE=Various Artist - Rhythm And Blues - 1964
DYEAR=1991
DGENRE=R&B
TTITLE0=Martha And The Vandellas -  Dancing In The Street
TTITLE1=Four Tops - Baby I Need Your Loving
TTITLE2=Betty Everett - The Shoop Shoop Song (It's In His Kiss)
TTITLE3=Drifters - Under The Boardwalk
TTITLE4=Major Lance - Um Um Um Um Um Um
TTITLE5=Joe Hinton - Funny
TTITLE6=Maxine Brown - Oh No Not My Baby
TTITLE7=Temptations - The Way You Do The Things You Do
TTITLE8=Jackie Ross - Selfish One
TTITLE9=Dionne Warwick - Walk On By
TTITLE10=Betty Everett And Jerry Butler - Let It Be Me
TTITLE11=Bobby Bland - Ain't Nothing You Can Do
TTITLE12=Solomon Burke - Goodbye Baby (Baby Goodbye)
TTITLE13=Don Covay And The Goodtimers - Mercy Mercy
TTITLE14=Tommy Tucker - Hi-Heel Sneakers
TTITLE15=Supremes - Baby Love
TTITLE16=Chuck Berry - Nadine (Is It You)
TTITLE17=Tams - What Kind Of Fool (Do You Think I Am)
TTITLE18=Mary Wells - My Guy
TTITLE19=Impressions - Keep On Pushing
TTITLE20=Brenda Holloway - Every Little Bit Hurts
TTITLE21=Sapphires - Who Do You Love
EXTD=Time-Life Music RHD-12 OPCD-2656
EXTT0=
EXTT1=
EXTT2=
EXTT3=
EXTT4=
EXTT5=
EXTT6=
EXTT7=
EXTT8=
EXTT9=
EXTT10=
EXTT11=
EXTT12=
EXTT13=
EXTT14=
EXTT15=
EXTT16=
EXTT17=
EXTT18=
EXTT19=
EXTT20=
EXTT21=
PLAYORDER=
